2.2Hz3min_grf.mot
version=1
nRows=15
nColumns 19
inDegrees=yes
endheader
time	1_ground_force_vx	1_ground_force_vy	1_ground_force_vz	1_ground_force_px	1_ground_force_py	1_ground_force_pz	1_ground_torque_x	1_ground_torque_y	1_ground_torque_z	2_ground_force_vx	2_ground_force_vy	2_ground_force_vz	2_ground_force_px	2_ground_force_py	2_ground_force_pz	2_ground_torque_x	2_ground_torque_y	2_ground_torque_z
            0.005000	           13.057375	           40.022487	           -0.090108	           -0.152624	            0.005882	           -0.322435	           -0.069482	           -0.212972	            0.000479	            8.612100	           68.496820	           10.987196	           -0.164148	            0.005871	           -0.692091	            0.098371	            0.782398	            0.125500
            0.005500	           12.829092	           38.038537	            0.131238	           -0.149626	            0.005866	           -0.318446	           -0.075619	           -0.224211	           -0.000774	            8.196351	           66.838640	           10.793749	           -0.164642	            0.005872	           -0.692901	            0.091463	            0.745855	            0.120448
            0.006000	           12.646178	           36.776249	            0.217994	           -0.151049	            0.005875	           -0.320588	           -0.078693	           -0.228846	           -0.001357	            7.829362	           64.628846	           10.410599	           -0.162588	            0.005878	           -0.692488	            0.088931	            0.734094	            0.118250
            0.006500	           12.464127	           35.152053	            0.624196	           -0.149547	            0.005867	           -0.318640	           -0.071891	           -0.202753	           -0.003600	            7.323818	           61.866091	           10.025537	           -0.160569	            0.005877	           -0.690271	            0.080477	            0.679807	            0.110164
            0.007000	           11.638761	           33.710554	            0.436636	           -0.149789	            0.005853	           -0.315456	           -0.109375	           -0.316794	           -0.004103	            7.140968	           60.577213	            9.786377	           -0.161184	            0.005890	           -0.694382	            0.078624	            0.666968	            0.107750
            0.007500	           11.547695	           32.808422	            0.616423	           -0.148726	            0.005868	           -0.318978	           -0.103318	           -0.293540	           -0.005515	            6.821036	           58.365915	            9.872488	           -0.161055	            0.005887	           -0.693469	            0.086772	            0.742483	            0.125590
            0.008000	           11.412041	           30.642651	            1.203615	           -0.149612	            0.005867	           -0.318654	           -0.074903	           -0.201124	           -0.007900	            6.359039	           56.523911	            9.537620	           -0.161894	            0.005885	           -0.693730	            0.076967	            0.684140	            0.115439
            0.008500	           10.769738	           29.021512	            0.877260	           -0.152385	            0.005849	           -0.314626	           -0.085702	           -0.230942	           -0.006981	            5.897830	           54.496756	            9.483664	           -0.159805	            0.005894	           -0.694023	            0.077955	            0.720311	            0.125350
            0.009000	           10.632667	           27.759233	            0.963902	           -0.149693	            0.005869	           -0.319211	           -0.047951	           -0.125188	           -0.004347	            5.851542	           54.313275	            9.248386	           -0.160661	            0.005905	           -0.698211	            0.069209	            0.642385	            0.109384
            0.009500	           10.221012	           25.775248	            1.185703	           -0.141755	            0.005863	           -0.317542	           -0.037567	           -0.094737	           -0.004358	            5.392081	           51.735683	            8.629321	           -0.158961	            0.005895	           -0.693501	            0.057922	            0.555751	            0.092697
            0.010000	            9.946265	           24.693404	            1.227604	           -0.150203	            0.005854	           -0.315684	           -0.076968	           -0.191087	           -0.009500	            4.604190	           49.339548	            8.433406	           -0.156868	            0.005890	           -0.690093	            0.059320	            0.635684	            0.108655
            0.010500	            9.763402	           22.529984	            1.264640	           -0.143492	            0.005873	           -0.319866	           -0.060856	           -0.140430	           -0.007883	            4.324317	           48.971073	            8.197570	           -0.156207	            0.005911	           -0.695242	            0.054808	            0.620674	            0.103898
            0.011000	            9.580162	           21.808886	            1.262003	           -0.145144	            0.005865	           -0.317998	           -0.067482	           -0.153620	           -0.008889	            4.189729	           47.313398	            8.144789	           -0.156759	            0.005907	           -0.694775	            0.054125	            0.611213	            0.105218
            0.011500	            8.984658	           21.807984	            1.446906	           -0.147878	            0.005861	           -0.317188	           -0.076556	           -0.185821	           -0.012329	            3.682732	           44.919953	            7.479473	           -0.156257	            0.005901	           -0.692573	            0.046096	            0.562258	            0.093620
            0.012000	            8.756132	           19.283827	            1.528365	           -0.141408	            0.005862	           -0.317203	           -0.036799	           -0.081044	           -0.006423	            3.264968	           43.814377	            7.241069	           -0.155992	            0.005901	           -0.692137	            0.040806	            0.547599	            0.090500
